<svg width="176" height="160" viewBox="0 0 176 160" fill="none" xmlns="http://www.w3.org/2000/svg">
<g clip-path="url(#clip0_62_1305)">
<path d="M12.5347 100.82H0.87854V91.6491C0.87854 90.0132 2.57972 88.6748 4.65892 88.6748H16.0001V98.0932C16.0001 99.5966 14.4455 100.82 12.5347 100.82Z" fill="#3F3D56"/>
<path d="M171.941 12.3363H160.285V3.16573C160.285 1.52989 161.986 0.191498 164.065 0.191498H175.406V9.60989C175.406 11.1132 173.852 12.3363 171.941 12.3363Z" fill="#3F3D56"/>
<path d="M90.266 156.09L86.0675 156.089L84.0703 143.349L90.2668 143.349L90.266 156.09Z" fill="#A0616A"/>
<path d="M90.4137 159.535L77.5029 159.535V159.407C77.5031 157.223 79.7529 155.453 82.5282 155.453H82.5285L84.8868 154.045L89.2869 155.453L90.4139 155.453L90.4137 159.535V159.535Z" fill="#2F2E41"/>
<path d="M87.6052 90.3332L84.8344 97.9017C84.8344 97.9017 78.8488 122.671 80.424 126.141C81.9992 129.611 83.1601 151.438 83.1601 151.438H91.3558C91.3558 151.438 92.4597 145.901 92.4274 145.067C92.3952 144.234 94.2854 130.85 91.7651 128.867L102.791 107.056L120.118 95.6549L113.324 89.0198L87.6052 90.3332L87.6052 90.3332Z" fill="#2F2E41"/>
<path opacity="0.5" d="M127.679 102.611V98.6453L122.638 93.1925C120.559 93.1925 118.858 94.5309 118.858 96.1667V109.551C118.858 111.187 120.559 112.525 122.638 112.525H139.65C141.729 112.525 143.43 111.187 143.43 109.551L136.5 105.833H131.774C129.516 105.833 127.679 104.387 127.679 102.611Z" fill="#7B6CF6"/>
<path opacity="0.5" d="M152.006 69.7705H49.1665C45.8174 69.7705 43.0929 67.6268 43.0929 64.9919V36.8755C43.0929 34.2406 45.8174 32.0969 49.1665 32.0969H152.006C155.355 32.0969 158.079 34.2406 158.079 36.8755V64.9919C158.079 67.6268 155.355 69.7705 152.006 69.7705Z" fill="#7B6CF6"/>
<path d="M107.763 64.4416H40.6609C37.2249 64.4416 34.4294 62.2423 34.4294 59.539V31.4227C34.4294 28.7194 37.2247 26.5202 40.6607 26.5202H143.5C146.936 26.5202 149.731 28.7195 149.731 31.4228C149.731 49.6294 130.904 64.4416 107.763 64.4416ZM40.6607 27.0159C37.5722 27.0159 35.0595 28.9928 35.0595 31.4227V59.539C35.0595 61.969 37.5722 63.9459 40.6609 63.9459H107.763C130.557 63.9459 149.101 49.3562 149.101 31.4228C149.101 28.9928 146.588 27.0159 143.5 27.0159H40.6607Z" fill="#7B6CF6"/>
<path d="M116.275 93.4512L115.608 86.0249L120.947 85.1332L121.297 93.0046C121.507 93.1792 121.689 93.3804 121.833 93.6068C122.614 94.8382 121.978 96.3347 120.413 96.9492C118.848 97.5637 116.946 97.0636 116.165 95.8322C115.667 95.0468 115.747 94.1547 116.275 93.4512Z" fill="#A0616A"/>
<path d="M107.799 45.8335L105.745 47.0379L110.793 69.6864L110.055 71.073L111.039 71.8014L111.341 73.5432L115.316 89.7226H121.378C121.289 89.1605 123.042 88.5845 122.953 87.9876C122.852 87.3052 122.142 86.2729 122.041 85.552C122.01 85.3288 121.979 85.1039 121.947 84.8774C121.901 84.545 121.855 84.2093 121.809 83.8705C121.774 83.6081 121.738 83.344 121.702 83.0782C120.927 77.324 120.609 70.8488 120.161 65.2575C119.59 58.1293 118.81 52.4377 116.607 51.5077L107.799 45.8335L107.799 45.8335Z" fill="#3F3D56"/>
<path d="M123.122 155.704C123.772 155.736 124.132 155.1 123.64 154.729L123.591 154.576C123.597 154.564 123.604 154.551 123.61 154.539C124.268 153.304 126.499 153.313 127.152 154.549C127.731 155.647 128.468 156.746 128.65 157.907C128.731 158.419 128.695 158.941 128.55 159.444C129.907 157.111 130.622 154.564 130.622 152.003C130.622 151.359 130.577 150.716 130.485 150.074C130.41 149.549 130.306 149.027 130.172 148.51C129.445 145.715 127.873 143.053 125.604 140.829C124.513 140.36 123.604 139.627 123.054 138.748C122.857 138.431 122.702 138.09 122.629 137.743C122.753 137.755 123.097 136.268 123.003 136.177C123.176 135.97 123.486 135.868 123.675 135.666C124.614 134.664 125.909 134.839 126.585 136.201C128.028 136.774 128.042 137.725 127.156 138.639C126.593 139.221 126.515 140.008 126.021 140.631C126.072 140.682 126.125 140.731 126.176 140.783C127.108 141.724 127.915 142.736 128.595 143.799C128.403 142.617 128.687 141.194 129.171 140.277C129.721 139.231 130.754 138.351 131.663 137.448C132.755 136.362 134.994 136.836 135.186 138.212C135.188 138.225 135.19 138.238 135.192 138.252C135.057 138.312 134.924 138.375 134.795 138.443C134.058 138.826 134.313 139.725 135.186 139.831L135.206 139.833C135.157 140.216 135.074 140.595 134.951 140.968C136.118 144.517 133.6 145.809 130.005 145.867C129.926 145.899 129.848 145.931 129.769 145.961C130.133 146.768 130.424 147.596 130.64 148.435C130.833 149.176 130.967 149.925 131.043 150.677C131.136 151.627 131.128 152.581 131.026 153.529L131.033 153.495C131.291 152.451 132.011 151.476 133.057 150.801C134.615 149.794 136.816 149.423 138.497 148.614C139.306 148.224 140.343 148.727 140.202 149.465L140.195 149.501C139.945 149.581 139.701 149.674 139.465 149.778C139.33 149.838 139.197 149.901 139.068 149.969C138.331 150.352 138.586 151.251 139.459 151.357L139.479 151.359C139.493 151.361 139.505 151.363 139.519 151.364C139.09 152.166 138.492 152.911 137.743 153.553C137.014 156.65 133.882 156.944 130.532 156.042H130.53C130.164 157.297 129.629 158.523 128.941 159.692H123.264C123.244 159.642 123.225 159.591 123.207 159.541C123.732 159.567 124.261 159.543 124.778 159.468C124.357 159.061 123.935 158.651 123.514 158.245C123.504 158.237 123.496 158.229 123.488 158.221C123.274 158.013 123.058 157.806 122.845 157.598L122.845 157.598C122.831 156.959 122.929 156.322 123.121 155.704L123.122 155.704Z" fill="#F2F2F2"/>
<path d="M59.6266 159.705C59.6266 159.869 59.7936 160 60.0015 160H139.796C140.004 160 140.171 159.869 140.171 159.705C140.171 159.541 140.004 159.41 139.796 159.41H60.0015C59.7936 159.41 59.6266 159.541 59.6266 159.705H59.6266Z" fill="#CCCCCC"/>
<path d="M7.55407 0C3.6063 0 0.406006 2.51785 0.406006 5.62377V100.876H1.03607V39.0814C1.03607 17.771 22.9938 0.495705 50.0802 0.495705L175.363 0.405568L175.248 0H7.55407Z" fill="#3F3D56"/>
<path d="M59.9469 63.4502C59.9469 63.7823 59.9343 64.1145 59.9123 64.4416H40.6607C37.3938 64.4416 34.7444 62.3572 34.7444 59.787V45.7139C35.5729 45.642 36.414 45.6049 37.2646 45.6049C49.7903 45.6049 59.9469 53.5956 59.9469 63.4502H59.9469Z" fill="#7B6CF6"/>
<path d="M131.318 45.3561H69.7702C68.7213 45.3561 67.8687 46.0269 67.8687 46.8522C67.8687 47.6774 68.7213 48.3482 69.7702 48.3482H131.318C132.366 48.3482 133.219 47.6774 133.219 46.8522C133.219 46.0269 132.366 45.3561 131.318 45.3561Z" fill="#7B6CF6"/>
<path d="M88.8531 36.9677H69.7702C68.7213 36.9677 67.8687 37.6385 67.8687 38.4637C67.8687 39.289 68.7213 39.9598 69.7702 39.9598H88.8531C89.902 39.9598 90.7546 39.289 90.7546 38.4637C90.7546 37.6385 89.902 36.9677 88.8531 36.9677Z" fill="#7B6CF6"/>
<path d="M107.593 156.09L103.394 156.089L101.397 143.349L107.594 143.349L107.593 156.09Z" fill="#A0616A"/>
<path d="M107.74 159.535L94.8297 159.535V159.407C94.8299 157.223 97.0797 155.453 99.8549 155.453H99.8553L102.214 154.045L106.614 155.453L107.741 155.453L107.74 159.535V159.535Z" fill="#2F2E41"/>
<path d="M98.8533 93.3164L101.059 108.435L96.1755 124.174L100.428 151.562L108.304 152.057C108.304 152.057 112.085 131.981 108.619 125.042L117.44 97.7778L110.825 94.8036L98.8533 93.3164Z" fill="#2F2E41"/>
<path d="M107.07 42.2305C105.68 41.0633 106.156 39.9998 104.008 39.7018C102.551 39.4997 100.798 39.7024 99.306 39.7013C95.5571 39.6985 94.9936 41.3294 92.8353 43.4962C87.276 49.0771 92.4481 53.5556 91.1351 60.2281C89.9151 66.4279 93.1848 69.8042 91.7366 76.0207C91.0473 78.9798 89.7111 83.1466 87.3729 86.5496C86.0819 88.4287 85.4627 90.6147 85.7795 92.6968C86.0597 94.5395 116.308 94.7544 117.145 94.301C118.131 93.7671 117.798 92.6225 117.894 91.8251C118.155 89.6647 118.42 88.1513 117.76 85.9448C117.141 83.8714 117.152 81.4622 117.144 79.3192C117.135 77.2532 113.437 80.664 113.652 78.6014C113.926 75.9706 114.469 73.3969 115.068 70.79C115.531 68.7723 115.712 66.699 116.393 64.7234C117.177 62.4477 118.112 60.4459 118.143 58.0591C118.168 56.2013 118.738 53.6041 117.799 51.9021C116.416 49.3946 113.627 47.1367 111.274 45.1283C110.104 44.1297 108.943 43.4798 107.606 42.6521" fill="#3F3D56"/>
<path d="M59.5844 53.6575L68.1012 56.9021L66.4241 60.9885L57.5747 57.306C57.2775 57.3625 56.9651 57.3865 56.644 57.3717C54.8978 57.2911 53.5652 56.1119 53.6676 54.738C53.7701 53.3642 55.2688 52.3157 57.0151 52.3964C58.1288 52.4478 59.0722 52.9469 59.5844 53.6575L59.5844 53.6575Z" fill="#A0616A"/>
<path d="M85.7088 72.1777C84.893 71.8377 72.4664 65.6029 65.9326 62.7067C65.8102 62.6524 64.9668 63.0079 64.8491 62.9557C64.6695 62.8761 64.8402 62.2853 64.6725 62.211C64.3087 62.0497 63.6291 62.4149 63.3277 62.2813C62.236 61.7973 62.4673 59.7324 62.4673 59.7324L64.6725 55.519L68.2777 55.4284L69.0829 56.5104L70.7922 56.3483L71.9182 57.5018L84.895 61.5076C85.3994 56.1842 88.1052 51.7926 91.0363 47.4964L92.2211 47.6725C95.2089 48.1166 97.2019 50.3538 96.713 52.715L93.291 69.2409C92.9597 70.7785 91.5769 72.0183 89.6823 72.4765C88.3131 72.8077 86.8926 72.6709 85.7088 72.1777Z" fill="#3F3D56"/>
<path d="M98.5921 38.135C103.917 38.135 108.234 34.7389 108.234 30.5495C108.234 26.3602 103.917 22.964 98.5921 22.964C93.2672 22.964 88.9506 26.3602 88.9506 30.5495C88.9506 34.7389 93.2672 38.135 98.5921 38.135Z" fill="#A0616A"/>
<path d="M109.293 30.7802C108.956 30.6736 108.619 30.5844 108.326 30.5274C109.981 32.1661 107.188 33.6042 106.754 35.2813C106.79 36.6126 105.865 37.2166 104.247 37.5812L104.284 37.4771C91.119 40.1304 105.007 31.2984 94.7136 31.055C93.1448 31.1272 95.2399 27.2464 93.6268 27.4416C89.5314 27.9373 89.3405 27.5967 88.9016 29.9204C88.1042 30.1258 87.0112 29.1766 87.1404 28.1852C86.8486 27.768 86.0861 28.035 85.7794 27.4019C85.4549 26.9186 84.8375 23.7585 86.2456 25.2357C86.3387 24.2273 85.9762 22.1656 87.5751 23.9271C87.367 23.1257 88.2511 23.4727 88.6209 23.9494C88.8824 23.4809 89.1439 23.015 89.4022 22.5465C89.3298 22.7572 89.377 22.9877 89.5094 23.1959C90.2525 21.9538 91.387 21.8414 93.1574 21.4907C93.1368 21.8711 93.1479 22.3163 93.2141 22.6605C95.2698 19.9809 100.248 20.7296 102.233 23.0969C103.491 23.3229 104.023 22.9803 105.283 23.2281C108.669 23.8941 110.217 28.0016 109.293 30.7802V30.7802Z" fill="#2F2E41"/>
<path d="M134.924 102.363H146.581V93.1925C146.581 91.5567 144.879 90.2183 142.8 90.2183H131.459V99.6367C131.459 101.14 133.014 102.363 134.924 102.363Z" fill="#7B6CF6"/>
<path d="M40.6375 15.8267C42.1088 15.8267 43.3016 14.8674 43.3016 13.684C43.3016 12.5006 42.1088 11.5413 40.6375 11.5413C39.1661 11.5413 37.9734 12.5006 37.9734 13.684C37.9734 14.8674 39.1661 15.8267 40.6375 15.8267Z" fill="#3F3D56"/>
<path d="M49.8407 15.8267C51.3121 15.8267 52.5048 14.8674 52.5048 13.684C52.5048 12.5006 51.3121 11.5413 49.8407 11.5413C48.3694 11.5413 47.1766 12.5006 47.1766 13.684C47.1766 14.8674 48.3694 15.8267 49.8407 15.8267Z" fill="#3F3D56"/>
<path d="M59.044 15.8267C60.5153 15.8267 61.7081 14.8674 61.7081 13.684C61.7081 12.5006 60.5153 11.5413 59.044 11.5413C57.5726 11.5413 56.3799 12.5006 56.3799 13.684C56.3799 14.8674 57.5726 15.8267 59.044 15.8267Z" fill="#3F3D56"/>
<path d="M124.371 20.8872C124.11 20.8872 123.898 21.0539 123.898 21.259V23.7375C123.898 23.9425 124.11 24.1093 124.371 24.1093H127.521C127.782 24.1093 127.994 23.9425 127.994 23.7375V21.259C127.994 21.0539 127.782 20.8872 127.521 20.8872H124.371Z" fill="#7B6CF6"/>
<path d="M131.617 20.8872C131.356 20.8872 131.144 21.0539 131.144 21.259V23.7375C131.144 23.9425 131.356 24.1093 131.617 24.1093H134.767C135.027 24.1093 135.239 23.9425 135.239 23.7375V21.259C135.239 21.0539 135.027 20.8872 134.767 20.8872H131.617Z" fill="#7B6CF6"/>
<path d="M138.862 20.8872C138.602 20.8872 138.39 21.0539 138.39 21.259V23.7375C138.39 23.9425 138.602 24.1093 138.862 24.1093H142.013C142.273 24.1093 142.485 23.9425 142.485 23.7375V21.259C142.485 21.0539 142.273 20.8872 142.013 20.8872H138.862Z" fill="#7B6CF6"/>
</g>
<defs>
<clipPath id="clip0_62_1305">
<rect width="175" height="160" fill="white" transform="translate(0.406006)"/>
</clipPath>
</defs>
</svg>
