<svg width="182" height="160" viewBox="0 0 182 160" fill="none" xmlns="http://www.w3.org/2000/svg">
<g clip-path="url(#clip0_61_1260)">
<path d="M158.56 154.21V138.354C158.56 138.354 164.735 149.595 158.56 154.21Z" fill="#F1F1F1"/>
<path d="M158.942 154.207L147.271 143.484C147.271 143.484 159.72 146.534 158.942 154.207Z" fill="#F1F1F1"/>
<path d="M23.3159 154.21V138.354C23.3159 138.354 17.1416 149.595 23.3159 154.21Z" fill="#F1F1F1"/>
<path d="M22.9346 154.207L34.6057 143.484C34.6057 143.484 22.1559 146.534 22.9346 154.207Z" fill="#F1F1F1"/>
<path d="M129.383 36.6138H128.537V13.4225C128.537 11.6598 128.191 9.91444 127.517 8.28595C126.842 6.65745 125.855 5.17776 124.609 3.93137C123.364 2.68497 121.885 1.69628 120.258 1.02173C118.631 0.347186 116.887 1.43919e-06 115.125 0H66.0289C64.2676 -3.7418e-06 62.5236 0.347176 60.8963 1.02172C59.2691 1.69626 57.7905 2.68495 56.5451 3.93134C55.2996 5.17773 54.3117 6.65742 53.6377 8.28591C52.9636 9.9144 52.6167 11.6598 52.6167 13.4225V140.652C52.6167 144.212 54.0298 147.626 56.545 150.143C59.0603 152.66 62.4718 154.074 66.0289 154.074H115.125C118.682 154.074 122.094 152.66 124.609 150.143C127.124 147.626 128.537 144.212 128.537 140.652V53.1218H129.383V36.6138Z" fill="#3F3D56"/>
<path d="M115.666 3.49207H109.258C109.552 4.21518 109.665 4.99973 109.585 5.7766C109.506 6.55347 109.236 7.29882 108.801 7.947C108.366 8.59517 107.778 9.12627 107.089 9.49351C106.401 9.86076 105.632 10.0529 104.852 10.0529H76.7252C75.9448 10.0529 75.1765 9.86076 74.4878 9.49352C73.7991 9.12628 73.2112 8.59517 72.776 7.947C72.3407 7.29882 72.0714 6.55347 71.9917 5.7766C71.9121 4.99972 72.0246 4.21518 72.3193 3.49207H66.3336C63.6772 3.49206 61.1295 4.54813 59.2512 6.42795C57.3728 8.30777 56.3175 10.8574 56.3175 13.5158V140.559C56.3175 141.875 56.5766 143.178 57.0799 144.395C57.5833 145.611 58.3211 146.716 59.2511 147.646C60.1812 148.577 61.2854 149.316 62.5006 149.819C63.7158 150.323 65.0183 150.582 66.3336 150.582H115.666C116.982 150.582 118.284 150.323 119.499 149.819C120.715 149.316 121.819 148.577 122.749 147.646C123.679 146.716 124.417 145.611 124.92 144.395C125.423 143.178 125.682 141.875 125.682 140.559V13.5158C125.682 12.1995 125.423 10.896 124.92 9.67991C124.417 8.46377 123.679 7.35875 122.749 6.42796C121.819 5.49717 120.715 4.75882 119.499 4.25508C118.284 3.75134 116.982 3.49207 115.666 3.49207Z" fill="white"/>
<path d="M114.431 148.401H67.5694C62.1849 148.401 57.8043 144.488 57.8043 139.679V133.364C57.8043 129.53 61.293 126.412 65.5811 126.412H116.419C120.707 126.412 124.196 129.53 124.196 133.364V139.679C124.196 144.488 119.815 148.401 114.431 148.401Z" fill="#E5E5E5"/>
<path d="M72.4954 42.268H62.0425C61.8552 42.2678 61.6757 42.1932 61.5433 42.0607C61.4109 41.9282 61.3364 41.7486 61.3362 41.5612V31.1002C61.3364 30.9128 61.4109 30.7331 61.5433 30.6006C61.6757 30.4681 61.8552 30.3936 62.0425 30.3934H72.4954C72.6827 30.3936 72.8622 30.4681 72.9946 30.6006C73.127 30.7331 73.2015 30.9128 73.2017 31.1002V41.5612C73.2015 41.7486 73.127 41.9282 72.9946 42.0607C72.8622 42.1932 72.6827 42.2678 72.4954 42.268Z" fill="#7B6CF6"/>
<path d="M88.3161 42.268H77.8631C77.6759 42.2678 77.4964 42.1932 77.364 42.0607C77.2316 41.9282 77.1571 41.7486 77.1569 41.5612V31.1002C77.1571 30.9128 77.2316 30.7331 77.364 30.6006C77.4964 30.4681 77.6759 30.3936 77.8631 30.3934H88.3161C88.5033 30.3936 88.6829 30.4681 88.8153 30.6006C88.9477 30.7331 89.0221 30.9128 89.0224 31.1002V41.5612C89.0221 41.7486 88.9477 41.9282 88.8153 42.0607C88.6829 42.1932 88.5033 42.2678 88.3161 42.268Z" fill="#E5E5E5"/>
<path d="M104.137 42.268H93.6838C93.4966 42.2678 93.317 42.1932 93.1846 42.0607C93.0522 41.9282 92.9778 41.7486 92.9775 41.5612V31.1002C92.9778 30.9128 93.0522 30.7331 93.1846 30.6006C93.317 30.4681 93.4966 30.3936 93.6838 30.3934H104.137C104.324 30.3936 104.504 30.4681 104.636 30.6006C104.768 30.7331 104.843 30.9128 104.843 31.1002V41.5612C104.843 41.7486 104.768 41.9282 104.636 42.0607C104.504 42.1932 104.324 42.2678 104.137 42.268Z" fill="#E5E5E5"/>
<path d="M119.958 42.268H109.505C109.317 42.2678 109.138 42.1932 109.005 42.0607C108.873 41.9282 108.799 41.7486 108.798 41.5612V31.1002C108.799 30.9128 108.873 30.7331 109.005 30.6006C109.138 30.4681 109.317 30.3936 109.505 30.3934H119.958C120.145 30.3936 120.324 30.4681 120.457 30.6006C120.589 30.7331 120.664 30.9128 120.664 31.1002V41.5612C120.664 41.7486 120.589 41.9282 120.457 42.0607C120.324 42.1932 120.145 42.2678 119.958 42.268Z" fill="#E5E5E5"/>
<path d="M72.4581 61.6349H62.0051C61.8179 61.6347 61.6383 61.5602 61.5059 61.4277C61.3735 61.2952 61.299 61.1155 61.2988 60.9281V50.4671C61.299 50.2797 61.3735 50.1001 61.5059 49.9676C61.6383 49.8351 61.8179 49.7605 62.0051 49.7603H72.4581C72.6453 49.7605 72.8248 49.8351 72.9572 49.9676C73.0896 50.1001 73.1641 50.2797 73.1643 50.4671V60.9281C73.1641 61.1155 73.0896 61.2952 72.9572 61.4277C72.8248 61.5602 72.6453 61.6347 72.4581 61.6349Z" fill="#E5E5E5"/>
<path d="M88.2787 61.6349H77.8258C77.6385 61.6347 77.459 61.5602 77.3266 61.4277C77.1942 61.2952 77.1197 61.1155 77.1195 60.9281V50.4671C77.1197 50.2797 77.1942 50.1001 77.3266 49.9676C77.459 49.8351 77.6385 49.7605 77.8258 49.7603H88.2787C88.466 49.7605 88.6455 49.8351 88.7779 49.9676C88.9103 50.1001 88.9848 50.2797 88.985 50.4671V60.9281C88.9848 61.1155 88.9103 61.2952 88.7779 61.4277C88.6455 61.5602 88.466 61.6347 88.2787 61.6349Z" fill="#E5E5E5"/>
<path d="M104.099 61.6349H93.6465C93.4592 61.6347 93.2797 61.5602 93.1473 61.4277C93.0149 61.2952 92.9404 61.1155 92.9402 60.9281V50.4671C92.9404 50.2797 93.0149 50.1001 93.1473 49.9676C93.2797 49.8351 93.4592 49.7605 93.6465 49.7603H104.099C104.287 49.7605 104.466 49.8351 104.599 49.9676C104.731 50.1001 104.805 50.2797 104.806 50.4671V60.9281C104.805 61.1155 104.731 61.2952 104.599 61.4277C104.466 61.5602 104.287 61.6347 104.099 61.6349Z" fill="#7B6CF6"/>
<path d="M119.92 61.6349H109.467C109.28 61.6347 109.1 61.5602 108.968 61.4277C108.836 61.2952 108.761 61.1155 108.761 60.9281V50.4671C108.761 50.2797 108.836 50.1001 108.968 49.9676C109.1 49.8351 109.28 49.7605 109.467 49.7603H119.92C120.107 49.7605 120.287 49.8351 120.419 49.9676C120.552 50.1001 120.626 50.2797 120.626 50.4671V60.9281C120.626 61.1155 120.552 61.2952 120.419 61.4277C120.287 61.5602 120.107 61.6347 119.92 61.6349Z" fill="#7B6CF6"/>
<path d="M72.4207 81.0019H61.9678C61.7805 81.0017 61.601 80.9271 61.4686 80.7946C61.3362 80.6621 61.2617 80.4824 61.2615 80.2951V69.8341C61.2617 69.6467 61.3362 69.467 61.4686 69.3345C61.601 69.202 61.7805 69.1275 61.9678 69.1273H72.4207C72.608 69.1275 72.7875 69.202 72.9199 69.3345C73.0523 69.467 73.1268 69.6467 73.127 69.8341V80.2951C73.1268 80.4824 73.0523 80.6621 72.9199 80.7946C72.7875 80.9271 72.608 81.0017 72.4207 81.0019Z" fill="#E5E5E5"/>
<path d="M88.2414 81.0019H77.7884C77.6012 81.0017 77.4217 80.9271 77.2893 80.7946C77.1569 80.6621 77.0824 80.4824 77.0822 80.2951V69.8341C77.0824 69.6467 77.1569 69.467 77.2893 69.3345C77.4217 69.202 77.6012 69.1275 77.7884 69.1273H88.2414C88.4286 69.1275 88.6082 69.202 88.7406 69.3345C88.873 69.467 88.9475 69.6467 88.9477 69.8341V80.2951C88.9475 80.4824 88.873 80.6621 88.7406 80.7946C88.6082 80.9271 88.4286 81.0017 88.2414 81.0019Z" fill="#E5E5E5"/>
<path d="M104.062 81.0019H93.6091C93.4219 81.0017 93.2423 80.9271 93.1099 80.7946C92.9775 80.6621 92.9031 80.4824 92.9028 80.2951V69.8341C92.9031 69.6467 92.9775 69.467 93.1099 69.3345C93.2423 69.202 93.4219 69.1275 93.6091 69.1273H104.062C104.249 69.1275 104.429 69.202 104.561 69.3345C104.694 69.467 104.768 69.6467 104.768 69.8341V80.2951C104.768 80.4825 104.694 80.6621 104.561 80.7946C104.429 80.9271 104.249 81.0017 104.062 81.0019Z" fill="#E5E5E5"/>
<path d="M119.883 81.0019H109.43C109.243 81.0017 109.063 80.9271 108.931 80.7946C108.798 80.6621 108.724 80.4824 108.724 80.2951V69.8341C108.724 69.6467 108.798 69.467 108.931 69.3345C109.063 69.202 109.243 69.1275 109.43 69.1273H119.883C120.07 69.1275 120.25 69.202 120.382 69.3345C120.514 69.467 120.589 69.6467 120.589 69.8341V80.2951C120.589 80.4824 120.514 80.6621 120.382 80.7946C120.25 80.9271 120.07 81.0017 119.883 81.0019Z" fill="#E5E5E5"/>
<path d="M72.3832 100.369H61.9303C61.743 100.369 61.5635 100.294 61.4311 100.162C61.2987 100.029 61.2242 99.8494 61.224 99.662V89.201C61.2242 89.0136 61.2987 88.834 61.4311 88.7015C61.5635 88.569 61.743 88.4944 61.9303 88.4942H72.3832C72.5705 88.4944 72.75 88.569 72.8824 88.7015C73.0148 88.834 73.0893 89.0136 73.0895 89.201V99.662C73.0893 99.8494 73.0148 100.029 72.8824 100.162C72.75 100.294 72.5705 100.369 72.3832 100.369Z" fill="#E5E5E5"/>
<path d="M88.2039 100.369H77.7509C77.5637 100.369 77.3842 100.294 77.2518 100.162C77.1194 100.029 77.0449 99.8494 77.0447 99.662V89.201C77.0449 89.0136 77.1194 88.834 77.2518 88.7015C77.3842 88.569 77.5637 88.4944 77.7509 88.4942H88.2039C88.3912 88.4944 88.5707 88.569 88.7031 88.7015C88.8355 88.834 88.91 89.0136 88.9102 89.201V99.662C88.91 99.8494 88.8355 100.029 88.7031 100.162C88.5707 100.294 88.3912 100.369 88.2039 100.369Z" fill="#E5E5E5"/>
<path d="M104.025 100.369H93.5718C93.3845 100.369 93.205 100.294 93.0726 100.162C92.9402 100.029 92.8657 99.8494 92.8655 99.662V89.201C92.8657 89.0136 92.9402 88.834 93.0726 88.7015C93.205 88.569 93.3845 88.4944 93.5718 88.4942H104.025C104.212 88.4944 104.391 88.569 104.524 88.7015C104.656 88.834 104.731 89.0136 104.731 89.201V99.662C104.731 99.8494 104.656 100.029 104.524 100.162C104.391 100.294 104.212 100.369 104.025 100.369Z" fill="#E5E5E5"/>
<path d="M119.845 100.369H109.392C109.205 100.369 109.026 100.294 108.893 100.162C108.761 100.029 108.686 99.8494 108.686 99.662V89.201C108.686 89.0136 108.761 88.834 108.893 88.7015C109.026 88.569 109.205 88.4944 109.392 88.4942H119.845C120.033 88.4944 120.212 88.569 120.345 88.7015C120.477 88.834 120.551 89.0136 120.552 89.201V99.662C120.551 99.8494 120.477 100.029 120.345 100.162C120.212 100.294 120.033 100.369 119.845 100.369Z" fill="#E5E5E5"/>
<path d="M72.4954 143.626H62.0425C61.8552 143.626 61.6757 143.552 61.5433 143.419C61.4109 143.287 61.3364 143.107 61.3362 142.92V132.459C61.3364 132.271 61.4109 132.092 61.5433 131.959C61.6757 131.827 61.8552 131.752 62.0425 131.752H72.4954C72.6827 131.752 72.8622 131.827 72.9946 131.959C73.127 132.092 73.2015 132.271 73.2017 132.459V142.92C73.2015 143.107 73.127 143.287 72.9946 143.419C72.8622 143.552 72.6827 143.626 72.4954 143.626Z" fill="white"/>
<path d="M88.3161 143.626H77.8631C77.6759 143.626 77.4964 143.552 77.364 143.419C77.2316 143.287 77.1571 143.107 77.1569 142.92V132.459C77.1571 132.271 77.2316 132.092 77.364 131.959C77.4964 131.827 77.6759 131.752 77.8631 131.752H88.3161C88.5033 131.752 88.6829 131.827 88.8153 131.959C88.9477 132.092 89.0221 132.271 89.0224 132.459V142.92C89.0221 143.107 88.9477 143.287 88.8153 143.419C88.6829 143.552 88.5033 143.626 88.3161 143.626Z" fill="white"/>
<path d="M104.137 143.626H93.6838C93.4966 143.626 93.317 143.552 93.1846 143.419C93.0522 143.287 92.9778 143.107 92.9775 142.92V132.459C92.9778 132.271 93.0522 132.092 93.1846 131.959C93.317 131.827 93.4966 131.752 93.6838 131.752H104.137C104.324 131.752 104.504 131.827 104.636 131.959C104.768 132.092 104.843 132.271 104.843 132.459V142.92C104.843 143.107 104.768 143.287 104.636 143.419C104.504 143.552 104.324 143.626 104.137 143.626Z" fill="white"/>
<path d="M119.958 143.626H109.505C109.317 143.626 109.138 143.552 109.005 143.419C108.873 143.287 108.799 143.107 108.798 142.92V132.459C108.799 132.271 108.873 132.092 109.005 131.959C109.138 131.827 109.317 131.752 109.505 131.752H119.958C120.145 131.752 120.324 131.827 120.457 131.959C120.589 132.092 120.664 132.271 120.664 132.459V142.92C120.664 143.107 120.589 143.287 120.457 143.419C120.324 143.552 120.145 143.626 119.958 143.626Z" fill="white"/>
<path d="M85.8774 121.574C86.6575 121.574 87.29 120.941 87.29 120.16C87.29 119.379 86.6575 118.746 85.8774 118.746C85.0973 118.746 84.4648 119.379 84.4648 120.16C84.4648 120.941 85.0973 121.574 85.8774 121.574Z" fill="#E5E5E5"/>
<path d="M90.9626 121.574C91.7427 121.574 92.3752 120.941 92.3752 120.16C92.3752 119.379 91.7427 118.746 90.9626 118.746C90.1825 118.746 89.55 119.379 89.55 120.16C89.55 120.941 90.1825 121.574 90.9626 121.574Z" fill="#E5E5E5"/>
<path d="M96.0478 121.574C96.8279 121.574 97.4604 120.941 97.4604 120.16C97.4604 119.379 96.8279 118.746 96.0478 118.746C95.2677 118.746 94.6353 119.379 94.6353 120.16C94.6353 120.941 95.2677 121.574 96.0478 121.574Z" fill="#E5E5E5"/>
<path d="M181.781 154.304H0.219013C0.160927 154.304 0.10522 154.281 0.0641473 154.239C0.0230744 154.198 0 154.143 0 154.084C0 154.026 0.0230744 153.971 0.0641473 153.929C0.10522 153.888 0.160927 153.865 0.219013 153.865H181.781C181.839 153.865 181.895 153.888 181.936 153.929C181.977 153.971 182 154.026 182 154.084C182 154.143 181.977 154.198 181.936 154.239C181.895 154.281 181.839 154.304 181.781 154.304Z" fill="#CBCBCB"/>
<path d="M71.478 111.147C71.7735 110.852 72.0006 110.495 72.1434 110.102C72.2862 109.709 72.3412 109.289 72.3044 108.873C72.2677 108.456 72.1401 108.053 71.9308 107.691C71.7214 107.329 71.4353 107.018 71.0926 106.779L73.8512 96.9967L68.8217 98.5974L66.9732 107.641C66.6098 108.244 66.48 108.959 66.6083 109.651C66.7366 110.343 67.1142 110.964 67.6695 111.397C68.2247 111.829 68.9191 112.042 69.6211 111.996C70.323 111.95 70.9837 111.648 71.478 111.147Z" fill="#FFB7B7"/>
<path d="M72.9081 105.151C72.8183 105.169 72.7269 105.176 72.6354 105.175L67.8106 105.078C67.6291 105.074 67.4504 105.032 67.2864 104.954C67.1224 104.876 66.977 104.763 66.8597 104.625C66.7424 104.486 66.6561 104.324 66.6063 104.149C66.5566 103.974 66.5446 103.791 66.5711 103.611L71.4656 70.5165C71.6117 69.5592 72.095 68.6858 72.8284 68.0541C73.5617 67.4224 74.4966 67.0739 75.4641 67.0717C76.0751 67.0732 76.6777 67.2137 77.2265 67.4824C77.7753 67.7511 78.2559 68.1412 78.632 68.623C79.0081 69.1049 79.2699 69.6659 79.3976 70.2639C79.5253 70.8618 79.5156 71.4809 79.3692 72.0745L75.8999 86.1365L73.9324 104.035C73.9039 104.306 73.7889 104.561 73.6045 104.762C73.42 104.964 73.1759 105.1 72.9081 105.151Z" fill="#3F3D56"/>
<path d="M74.9255 157.395H77.6106L78.8881 147.031L74.925 147.031L74.9255 157.395Z" fill="#FFB7B7"/>
<path d="M74.2407 156.518L79.5286 156.518H79.5288C80.4225 156.518 81.2796 156.873 81.9116 157.506C82.5435 158.138 82.8986 158.996 82.8986 159.89V160L74.2409 160L74.2407 156.518Z" fill="#2F2E41"/>
<path d="M86.3749 156.522L89.0431 156.822L91.4669 146.664L87.5286 146.222L86.3749 156.522Z" fill="#FFB7B7"/>
<path d="M85.7919 155.574L91.0469 156.164L91.0471 156.164C91.9352 156.264 92.7474 156.712 93.305 157.411C93.8626 158.11 94.1199 159.002 94.0203 159.891L94.0081 160L85.4043 159.035L85.7919 155.574Z" fill="#2F2E41"/>
<path d="M72.4055 99.7176C72.4055 99.7176 68.7243 107.873 71.9751 113.17L73.9118 154.413H78.3585L82.6723 121.098L90.3378 130.961L85.6676 153.981L91.1061 154.286L98.6603 130.961C98.6603 130.961 92.8569 105.24 90.9403 104.621L89.6807 98.7412L72.4055 99.7176Z" fill="#2F2E41"/>
<path d="M70.767 106.878C70.767 106.878 67.4508 110.687 76.2113 112.002C84.9719 113.317 94.1704 111.344 94.3894 108.714C94.6084 106.084 70.767 106.878 70.767 106.878Z" fill="#CBCBCB"/>
<path d="M114.683 59.6289C114.669 60.0007 114.575 60.3651 114.405 60.6962C114.236 61.0274 113.996 61.3173 113.702 61.5456C113.409 61.7739 113.069 61.935 112.706 62.0175C112.344 62.1001 111.967 62.1021 111.604 62.0235L108.293 66.8026L104.9 65.497L109.671 58.8137C109.843 58.2116 110.231 57.6937 110.759 57.3582C111.288 57.0227 111.921 56.8929 112.539 56.9934C113.157 57.0938 113.716 57.4176 114.111 57.9034C114.506 58.3891 114.71 59.0031 114.683 59.6289Z" fill="#FFB7B7"/>
<path d="M86.6774 65.7778L81.9955 63.6581L75.9968 64.0872C75.9968 64.0872 68.7649 72.549 71.6121 80.6587L69.86 108.933C81.0297 112.002 86.1071 106.246 94.1705 108.714L91.6798 77.2901L86.6774 65.7778Z" fill="#3F3D56"/>
<path d="M83.5483 67.8366L86.6775 65.7778C86.6775 65.7778 91.0241 65.1202 92.7616 66.8072C92.7616 66.8072 98.6588 67.3012 100.083 68.7744L101.651 69.1282L106.861 62.377L110.049 64.1105L105.45 76.6039L91.6799 77.29L83.5483 67.8366Z" fill="#3F3D56"/>
<path d="M84.628 61.2803C88.2095 59.3209 89.5258 54.827 87.568 51.2427C85.6101 47.6585 81.1196 46.3412 77.5381 48.3005C73.9566 50.2599 72.6404 54.7538 74.5982 58.3381C76.556 61.9223 81.0465 63.2396 84.628 61.2803Z" fill="#FFB7B7"/>
<path d="M74.6908 49.0079C76.01 46.6334 77.6585 45.0959 80.3727 45.1514C83.0869 45.2068 85.4347 45.0995 86.6559 47.5259C86.9787 46.9212 87.1403 46.2433 87.1252 45.5579C87.494 45.7974 87.7846 46.1398 87.9613 46.5427C88.138 46.9456 88.1929 47.3914 88.1194 47.8252C88.357 47.686 88.5558 47.4893 88.6977 47.2532C88.8395 47.0171 88.9199 46.7492 88.9315 46.4739C89.8373 46.7756 90.0729 48.0532 89.6145 48.8913C89.1561 49.7294 88.2572 50.214 87.3948 50.6237C86.5323 51.0334 86.9305 53.2002 86.3673 53.9716C85.9742 54.51 85.7944 55.1699 85.5296 55.7817C85.5185 55.8059 85.4996 55.8256 85.476 55.8377C84.8687 56.1766 84.4854 56.7821 84.5926 57.4696C84.6053 57.5211 84.6023 57.5753 84.584 57.6251C83.8152 59.0746 82.9853 60.5911 81.5919 61.456C80.4737 62.1317 79.1344 62.3389 77.8646 62.0326C76.4402 61.6918 75.2088 60.7467 74.3209 59.5812C73.433 58.4156 72.8619 57.0381 72.4327 55.6368C72.052 54.3938 71.7751 53.0647 72.077 51.8001C72.3788 50.5356 73.4014 49.3646 74.6968 49.2669" fill="#2F2E41"/>
</g>
<defs>
<clipPath id="clip0_61_1260">
<rect width="182" height="160" fill="white"/>
</clipPath>
</defs>
</svg>
