<svg width="279" height="160" viewBox="0 0 279 160" fill="none" xmlns="http://www.w3.org/2000/svg">
<g clip-path="url(#clip0_61_913)">
<path d="M139.5 160C216.544 160 279 156.421 279 152.006C279 147.59 216.544 144.011 139.5 144.011C62.4563 144.011 0 147.59 0 152.006C0 156.421 62.4563 160 139.5 160Z" fill="#F2F2F2"/>
<path d="M253.997 0H44.4286V6.64344H253.997V0Z" fill="#F2F2F2"/>
<path d="M50.0366 4.94315C50.9896 4.94315 51.7621 4.17336 51.7621 3.22379C51.7621 2.27421 50.9896 1.50443 50.0366 1.50443C49.0836 1.50443 48.311 2.27421 48.311 3.22379C48.311 4.17336 49.0836 4.94315 50.0366 4.94315Z" fill="#7B6CF6"/>
<path d="M55.6446 4.94315C56.5976 4.94315 57.3701 4.17336 57.3701 3.22379C57.3701 2.27421 56.5976 1.50443 55.6446 1.50443C54.6916 1.50443 53.9191 2.27421 53.9191 3.22379C53.9191 4.17336 54.6916 4.94315 55.6446 4.94315Z" fill="#7B6CF6"/>
<path d="M61.2526 4.94315C62.2056 4.94315 62.9781 4.17336 62.9781 3.22379C62.9781 2.27421 62.2056 1.50443 61.2526 1.50443C60.2996 1.50443 59.527 2.27421 59.527 3.22379C59.527 4.17336 60.2996 4.94315 61.2526 4.94315Z" fill="#7B6CF6"/>
<path d="M44.577 105.072L44.4285 105.199V150.014H253.997V71.2947L251.5 71.4834L44.577 105.072Z" fill="#3F3D56"/>
<path d="M118.075 44.4399H59.5527V46.7913H118.075V44.4399Z" fill="#3F3D56"/>
<path d="M118.075 49.6129H59.5527V51.9642H118.075V49.6129Z" fill="#3F3D56"/>
<path d="M79.3748 54.7858H59.5527V57.1371H79.3748V54.7858Z" fill="#3F3D56"/>
<path d="M237.42 109.718H178.897V112.069H237.42V109.718Z" fill="white"/>
<path d="M237.42 114.891H178.897V117.242H237.42V114.891Z" fill="white"/>
<path d="M198.719 120.064H178.897V122.415H198.719V120.064Z" fill="white"/>
<path d="M142.537 147.846C143.808 147.846 144.839 146.819 144.839 145.552C144.839 144.286 143.808 143.259 142.537 143.259C141.266 143.259 140.235 144.286 140.235 145.552C140.235 146.819 141.266 147.846 142.537 147.846Z" fill="#F2F2F2"/>
<path d="M149.213 148.076C150.484 148.076 151.515 147.049 151.515 145.782C151.515 144.515 150.484 143.488 149.213 143.488C147.942 143.488 146.911 144.515 146.911 145.782C146.911 147.049 147.942 148.076 149.213 148.076Z" fill="#F2F2F2"/>
<path d="M155.889 148.305C157.16 148.305 158.191 147.278 158.191 146.011C158.191 144.744 157.16 143.717 155.889 143.717C154.617 143.717 153.587 144.744 153.587 146.011C153.587 147.278 154.617 148.305 155.889 148.305Z" fill="#F2F2F2"/>
<path d="M149.234 147.617C150.251 147.617 151.076 146.795 151.076 145.782C151.076 144.768 150.251 143.947 149.234 143.947C148.217 143.947 147.392 144.768 147.392 145.782C147.392 146.795 148.217 147.617 149.234 147.617Z" fill="#3F3D56"/>
<path d="M98.673 71.3541H78.851V75.8603H98.673V71.3541Z" fill="#3F3D56"/>
<path d="M216.494 132.331H196.672V136.837H216.494V132.331Z" fill="white"/>
<path opacity="0.3" d="M88.8737 87.2941C96.4466 87.2941 102.586 81.177 102.586 73.6312C102.586 66.0854 96.4466 59.9683 88.8737 59.9683C81.3008 59.9683 75.1617 66.0854 75.1617 73.6312C75.1617 81.177 81.3008 87.2941 88.8737 87.2941Z" fill="#7B6CF6"/>
<path opacity="0.3" d="M88.8737 82.7398C93.9223 82.7398 98.015 78.6617 98.015 73.6312C98.015 68.6007 93.9223 64.5226 88.8737 64.5226C83.8251 64.5226 79.7324 68.6007 79.7324 73.6312C79.7324 78.6617 83.8251 82.7398 88.8737 82.7398Z" fill="#7B6CF6"/>
<path d="M88.8737 79.9566C92.3797 79.9566 95.2218 77.1246 95.2218 73.6312C95.2218 70.1378 92.3797 67.3058 88.8737 67.3058C85.3677 67.3058 82.5256 70.1378 82.5256 73.6312C82.5256 77.1246 85.3677 79.9566 88.8737 79.9566Z" fill="#7B6CF6"/>
<path opacity="0.3" d="M204.251 53.4333C211.824 53.4333 217.963 47.3162 217.963 39.7704C217.963 32.2246 211.824 26.1075 204.251 26.1075C196.678 26.1075 190.539 32.2246 190.539 39.7704C190.539 47.3162 196.678 53.4333 204.251 53.4333Z" fill="#7B6CF6"/>
<path opacity="0.3" d="M204.251 48.879C209.299 48.879 213.392 44.801 213.392 39.7704C213.392 34.7399 209.299 30.6618 204.251 30.6618C199.202 30.6618 195.11 34.7399 195.11 39.7704C195.11 44.801 199.202 48.879 204.251 48.879Z" fill="#7B6CF6"/>
<path d="M204.251 46.0958C207.757 46.0958 210.599 43.2638 210.599 39.7704C210.599 36.277 207.757 33.445 204.251 33.445C200.745 33.445 197.903 36.277 197.903 39.7704C197.903 43.2638 200.745 46.0958 204.251 46.0958Z" fill="#7B6CF6"/>
<path opacity="0.3" d="M206.695 148.271C214.268 148.271 220.407 142.154 220.407 134.608C220.407 127.062 214.268 120.945 206.695 120.945C199.122 120.945 192.983 127.062 192.983 134.608C192.983 142.154 199.122 148.271 206.695 148.271Z" fill="#7B6CF6"/>
<path opacity="0.3" d="M206.695 143.717C211.743 143.717 215.836 139.639 215.836 134.608C215.836 129.578 211.743 125.5 206.695 125.5C201.646 125.5 197.554 129.578 197.554 134.608C197.554 139.639 201.646 143.717 206.695 143.717Z" fill="#7B6CF6"/>
<path d="M206.695 140.934C210.201 140.934 213.043 138.102 213.043 134.608C213.043 131.115 210.201 128.283 206.695 128.283C203.189 128.283 200.347 131.115 200.347 134.608C200.347 138.102 203.189 140.934 206.695 140.934Z" fill="#7B6CF6"/>
<path d="M22.8335 27.6702L28.4771 27.8882L28.7585 20.6581L23.1149 20.44L22.8335 27.6702Z" fill="#7B6CF6"/>
<path d="M48.5733 45.7616C48.5733 45.7616 56.3888 42.0408 56.2638 45.2542C56.1387 48.4676 48.3857 50.5817 48.3857 50.5817L48.5733 45.7616Z" fill="#FFB9B9"/>
<path d="M44.2853 72.9508C44.2853 72.9508 47.9726 81.9434 49.335 88.4325C50.6973 94.9217 52.7721 103.852 50.1033 110.185C47.4345 116.519 39.8468 135.133 39.7686 137.141C39.6905 139.149 40.4185 141.189 38.8061 141.126C37.1936 141.064 28.4188 138.311 28.0626 137.091C27.7064 135.87 31.0564 132.781 31.0564 132.781L39.3286 106.953L30.6978 90.1261L24.4724 115.229L23.2531 146.56C23.2531 146.56 17.2689 144.719 16.4001 146.295C16.4001 146.295 13.719 142.571 13.3784 140.949C13.0378 139.326 14.6446 108.413 14.6446 108.413C14.6446 108.413 9.15164 73.2024 13.5859 73.3738C18.0202 73.5451 35.3888 62.9524 44.2853 72.9508Z" fill="#2F2E41"/>
<path d="M38.8686 139.52C38.8686 139.52 42.959 148.528 43.3464 148.945C43.7339 149.362 46.3994 153.488 44.3838 153.41C42.3683 153.332 37.609 151.137 34.106 147.784C30.603 144.43 25.9845 138.62 26.4032 138.234C26.822 137.847 29.6907 136.751 29.6907 136.751L38.8686 139.52Z" fill="#2F2E41"/>
<path d="M22.5251 144.52C22.5251 144.52 22.7719 148.552 23.5156 150.19C24.2593 151.828 24.1655 154.238 22.1499 154.16C20.1343 154.082 14.9251 153.077 14.9251 153.077C14.9251 153.077 14.6157 150.651 15.0345 150.265C15.4532 149.879 17.2377 145.523 16.4783 144.287C15.719 143.05 22.5251 144.52 22.5251 144.52Z" fill="#2F2E41"/>
<path d="M19.5432 13.6644C19.5432 13.6644 15.2463 20.3371 13.5713 21.8815C11.8963 23.4259 16.6086 26.8262 16.6086 26.8262L25.0428 27.9567C25.0428 27.9567 24.9367 20.3093 25.3711 19.5215C25.8055 18.7337 19.5432 13.6644 19.5432 13.6644Z" fill="#FFB9B9"/>
<path d="M26.8741 22.3955C26.8741 22.3955 25.1366 25.5466 23.5241 25.4843C21.9116 25.422 13.5712 21.8815 13.215 20.6609C12.8588 19.4403 10.4524 29.4043 10.4524 29.4043L30.8607 65.1911L35.8388 61.7629L33.4268 40.7513L31.4458 29.4109L26.8741 22.3955Z" fill="#7B6CF6"/>
<path d="M12.4623 54.4232C13.2764 56.1201 13.7848 57.8897 13.7143 59.7012C13.7112 59.7816 13.7081 59.8619 13.7009 59.9421C13.5078 63.6597 12.1333 67.9593 11.6402 71.086C11.2824 73.329 11.3842 74.9662 12.7015 75.351C15.8952 76.2789 12.2359 76.9421 24.5918 81.04C36.9478 85.138 39.104 81.6008 39.1353 80.7974C39.1666 79.9941 37.3855 73.8911 37.8042 73.505C38.223 73.1189 43.6634 78.5587 45.3071 77.8177C46.9508 77.0766 45.4947 72.9976 45.4947 72.9976C45.4947 72.9976 41.7918 64.4067 41.87 62.3983C41.9481 60.3899 36.2609 50.9178 36.2609 50.9178L32.3927 25.827C32.3927 25.827 30.9053 22.5513 28.9053 22.0718C26.9054 21.5922 25.246 22.7349 25.246 22.7349L28.5927 30.1052L32.1236 43.1146L31.5329 47.9191C31.5329 47.9191 27.4269 39.3126 24.7302 35.9902C22.0334 32.6678 16.2837 24.8023 16.2837 24.8023C16.2837 24.8023 14.9413 20.2891 15.9547 18.9404C16.9682 17.5877 11.7276 17.3852 9.4932 22.9308C8.30894 25.8699 6.38623 30.2529 5.18176 34.3337C4.10846 37.949 3.60147 41.3286 4.6648 43.2604C6.28997 46.2116 10.3781 50.0906 12.4623 54.4232Z" fill="#575A89"/>
<path opacity="0.1" d="M4.6648 43.2604C6.28999 46.2116 10.3781 50.0906 12.4623 54.4232C13.0066 52.4691 13.6707 50.4472 13.6707 50.4472C13.6707 50.4472 16.2178 36.8681 8.68366 33.3588C7.43529 33.2385 6.18675 33.5861 5.18176 34.3337C4.10846 37.949 3.60147 41.3286 4.6648 43.2604Z" fill="black"/>
<path d="M34.5736 42.4047L40.961 44.2606L49.8295 44.6033L50.7419 52.2818L36.1671 53.3278C36.1671 53.3278 32.5268 43.1302 34.5736 42.4047Z" fill="#575A89"/>
<path d="M24.1582 68.2224C24.1582 68.2224 32.7032 69.635 30.7529 72.1972C28.8026 74.7594 21.2327 72.0657 21.2327 72.0657L24.1582 68.2224Z" fill="#FFB9B9"/>
<path opacity="0.1" d="M13.7009 59.942C13.5078 63.6597 12.1333 67.9592 11.6402 71.086C14.3623 73.6531 16.9509 75.9174 17.9264 75.9551C19.942 76.033 23.1826 75.7559 24.3763 76.2043C25.57 76.6527 26.2701 69.0365 26.2701 69.0365C26.2701 69.0365 25.5577 66.5953 22.3797 65.2657C20.2345 64.3661 16.1227 61.9263 13.7009 59.942Z" fill="black"/>
<path d="M8.77742 30.9487C8.77742 30.9487 1.95569 29.8805 2.32423 41.1586C2.69276 52.4366 1.60515 59.6356 4.34881 61.753C7.09247 63.8704 16.0046 73.4672 18.0202 73.5451C20.0358 73.6229 23.2764 73.3459 24.4701 73.7943C25.6638 74.2427 26.3639 66.6265 26.3639 66.6265C26.3639 66.6265 25.6515 64.1852 22.4734 62.8556C19.2954 61.526 11.8081 56.8116 11.8707 55.2049C11.9332 53.5982 13.7645 48.0371 13.7645 48.0371C13.7645 48.0371 16.3116 34.458 8.77742 30.9487Z" fill="#575A89"/>
<path d="M25.5587 23.5449C30.4603 23.5449 34.4339 19.5855 34.4339 14.7014C34.4339 9.8173 30.4603 5.85794 25.5587 5.85794C20.657 5.85794 16.6834 9.8173 16.6834 14.7014C16.6834 19.5855 20.657 23.5449 25.5587 23.5449Z" fill="#FFB9B9"/>
<path d="M31.5346 2.02613C31.7486 2.20991 32.005 2.33809 32.2808 2.39927C32.4193 2.42386 32.5619 2.39288 32.6775 2.31308C32.7931 2.23328 32.8724 2.11114 32.8979 1.97333C33.101 2.39293 33.3301 2.84015 33.7447 3.05545C34.1592 3.27076 34.8003 3.09022 34.8601 2.6282C34.9206 2.979 35.0764 3.30659 35.3104 3.57547C35.5677 3.81984 36.0341 3.88152 36.2587 3.60705C36.0771 4.5957 36.1892 5.61242 36.1322 6.61588C36.0752 7.61934 35.8066 8.68315 35.0458 9.34299C33.9362 10.3053 32.2676 10.0678 30.8079 9.88548C30.5872 9.83933 30.3582 9.85181 30.1438 9.92168C29.5973 10.1537 29.6221 10.9118 29.6147 11.5037C29.5702 12.5422 29.1576 13.5314 28.4505 14.2955C27.7433 15.0597 26.7872 15.5495 25.752 15.6778C25.1726 15.7669 24.5815 15.6231 24.1085 15.2781C23.694 14.9281 23.4823 14.3576 23.0075 14.0947C22.235 13.667 21.2982 14.2907 20.7334 14.968C20.1686 15.6452 19.612 16.4783 18.7371 16.6023C17.58 16.7663 16.6987 15.5913 16.2663 14.5093C15.6698 12.9929 15.384 11.3728 15.4258 9.74456C15.4676 8.11632 15.8361 6.51291 16.5097 5.02885C18.9257 -0.218975 27.1791 -1.04902 31.5346 2.02613Z" fill="#2F2E41"/>
<path d="M244.586 142.643C247.712 147.954 254.016 150.057 254.016 150.057C254.016 150.057 255.252 143.549 252.127 138.237C249.001 132.926 242.697 130.823 242.697 130.823C242.697 130.823 241.46 137.331 244.586 142.643Z" fill="#F2F2F2"/>
<path d="M246.537 140.789C251.942 143.772 254.207 150 254.207 150C254.207 150 247.707 151.392 242.301 148.408C236.896 145.425 234.631 139.197 234.631 139.197C234.631 139.197 241.131 137.806 246.537 140.789Z" fill="#7B6CF6"/>
</g>
<defs>
<clipPath id="clip0_61_913">
<rect width="279" height="160" fill="white"/>
</clipPath>
</defs>
</svg>
