<svg width="52" height="52" viewBox="0 0 52 52" fill="none" xmlns="http://www.w3.org/2000/svg">
<path d="M47.8918 23.9739L28.0312 4.10823C27.4814 3.55892 26.736 3.25037 25.9588 3.25037C25.1816 3.25037 24.4362 3.55892 23.8864 4.10823L19.7569 8.23471L24.9894 13.4672C27.7377 12.5389 30.3397 15.1704 29.3962 17.9035L34.4398 22.9471C37.9163 21.7486 40.6534 26.0955 38.0422 28.7046C35.3518 31.395 30.9115 28.4131 32.3547 24.9123L27.6473 20.211V32.5864C30.2168 33.8599 29.9081 36.8367 28.5695 38.1723C27.9155 38.8259 27.0287 39.1931 26.1041 39.1931C25.1794 39.1931 24.2926 38.8259 23.6386 38.1723C21.8542 36.3848 22.5143 33.408 24.7812 32.4848V19.9926C22.6687 19.1283 22.2828 16.8706 22.8881 15.4223L17.7297 10.2578L4.10816 23.8814C3.55861 24.4311 3.24988 25.1765 3.24988 25.9538C3.24988 26.7311 3.55861 27.4765 4.10816 28.0262L23.9748 47.8918C24.5244 48.4411 25.2697 48.7496 26.0467 48.7496C26.8237 48.7496 27.5689 48.4411 28.1186 47.8918L47.8918 28.1186C48.4413 27.5689 48.75 26.8235 48.75 26.0462C48.75 25.269 48.4413 24.5235 47.8918 23.9739V23.9739Z" fill="#FB923C"/>
</svg>
