<svg width="52" height="52" viewBox="0 0 52 52" fill="none" xmlns="http://www.w3.org/2000/svg">
<path d="M17.6617 40.3609C17.6617 40.5641 17.4281 40.7266 17.1336 40.7266C16.7984 40.757 16.5648 40.5945 16.5648 40.3609C16.5648 40.1578 16.7984 39.9953 17.093 39.9953C17.3977 39.9648 17.6617 40.1273 17.6617 40.3609ZM14.5031 39.9039C14.432 40.107 14.6352 40.3406 14.9398 40.4016C15.2039 40.5031 15.5086 40.4016 15.5695 40.1984C15.6305 39.9953 15.4375 39.7617 15.1328 39.6703C14.8688 39.5992 14.5742 39.7008 14.5031 39.9039ZM18.9922 39.7313C18.6977 39.8023 18.4945 39.9953 18.525 40.2289C18.5555 40.432 18.8195 40.5641 19.1242 40.493C19.4188 40.4219 19.6219 40.2289 19.5914 40.0258C19.5609 39.8328 19.2867 39.7008 18.9922 39.7313ZM25.675 0.8125C11.5883 0.8125 0.8125 11.507 0.8125 25.5938C0.8125 36.857 7.90156 46.4953 18.0273 49.8875C19.3273 50.1211 19.7844 49.3188 19.7844 48.6586C19.7844 48.0289 19.7539 44.5555 19.7539 42.4227C19.7539 42.4227 12.6445 43.9461 11.1516 39.3961C11.1516 39.3961 9.99375 36.4406 8.32812 35.6789C8.32812 35.6789 6.00234 34.0844 8.49062 34.1148C8.49062 34.1148 11.0195 34.318 12.4109 36.7352C14.6352 40.6555 18.3625 39.5281 19.8148 38.8578C20.0484 37.2328 20.7086 36.1055 21.4398 35.4352C15.7625 34.8055 10.0344 33.9828 10.0344 24.2125C10.0344 21.4195 10.8063 20.018 12.4313 18.2305C12.1672 17.5703 11.3039 14.8484 12.6953 11.3344C14.818 10.6742 19.7031 14.0766 19.7031 14.0766C21.7344 13.5078 23.918 13.2133 26.0813 13.2133C28.2445 13.2133 30.4281 13.5078 32.4594 14.0766C32.4594 14.0766 37.3445 10.6641 39.4672 11.3344C40.8586 14.8586 39.9953 17.5703 39.7313 18.2305C41.3563 20.0281 42.3516 21.4297 42.3516 24.2125C42.3516 34.0133 36.3695 34.7953 30.6922 35.4352C31.6266 36.2375 32.4188 37.7609 32.4188 40.1477C32.4188 43.5703 32.3883 47.8055 32.3883 48.6383C32.3883 49.2984 32.8555 50.1008 34.1453 49.8672C44.3016 46.4953 51.1875 36.857 51.1875 25.5938C51.1875 11.507 39.7617 0.8125 25.675 0.8125ZM10.6844 35.8414C10.5523 35.943 10.5828 36.1766 10.7555 36.3695C10.918 36.532 11.1516 36.6031 11.2836 36.4711C11.4156 36.3695 11.3852 36.1359 11.2125 35.943C11.05 35.7805 10.8164 35.7094 10.6844 35.8414ZM9.5875 35.0187C9.51641 35.1508 9.61797 35.3133 9.82109 35.4148C9.98359 35.5164 10.1867 35.4859 10.2578 35.3438C10.3289 35.2117 10.2273 35.0492 10.0242 34.9477C9.82109 34.8867 9.65859 34.9172 9.5875 35.0187ZM12.8781 38.6344C12.7156 38.7664 12.7766 39.0711 13.0102 39.2641C13.2437 39.4977 13.5383 39.5281 13.6703 39.3656C13.8023 39.2336 13.7414 38.9289 13.5383 38.7359C13.3148 38.5023 13.0102 38.4719 12.8781 38.6344ZM11.7203 37.1414C11.5578 37.243 11.5578 37.507 11.7203 37.7406C11.8828 37.9742 12.157 38.0758 12.2891 37.9742C12.4516 37.8422 12.4516 37.5781 12.2891 37.3445C12.1469 37.1109 11.8828 37.0094 11.7203 37.1414Z" fill="black"/>
</svg>
