<svg width="492" height="382" viewBox="0 0 492 382" fill="none" xmlns="http://www.w3.org/2000/svg">
<g clip-path="url(#clip0_61_845)">
<path d="M129.44 172.401C128.358 172.401 127.478 173.27 127.478 174.338V189.831C127.478 190.899 128.358 191.768 129.44 191.768C130.521 191.768 131.401 190.899 131.401 189.831V174.338C131.401 173.27 130.521 172.401 129.44 172.401Z" fill="#3F3D56"/>
<path d="M352.564 0H176.112C156.102 0 139.881 16.0148 139.881 35.77V343.609C139.881 363.364 156.102 379.379 176.112 379.379H352.564C372.574 379.379 388.795 363.364 388.795 343.609V35.77C388.795 16.0148 372.574 0 352.564 0Z" fill="white"/>
<path d="M352.565 382H176.112C155.661 382 139.023 365.574 139.023 345.383V37.5448C139.023 17.3543 155.661 0.927734 176.112 0.927734H352.565C373.015 0.927734 389.653 17.3542 389.653 37.5448V345.383C389.653 365.574 373.015 382 352.565 382ZM176.112 2.6218C156.607 2.6218 140.739 18.2881 140.739 37.5448V345.383C140.739 364.64 156.607 380.306 176.112 380.306H352.565C372.069 380.306 387.938 364.64 387.938 345.383V37.5448C387.938 18.2881 372.069 2.6218 352.565 2.6218H176.112Z" fill="#3F3D56"/>
<path d="M365.346 75.0101H294.422C291.413 75.0101 288.966 72.5937 288.966 69.6237C288.966 66.6538 291.413 64.2374 294.422 64.2374H365.346C368.354 64.2374 370.802 66.6538 370.802 69.6237C370.802 72.5937 368.354 75.0101 365.346 75.0101Z" fill="#E6E6E6"/>
<path d="M298.81 117.368H229.868C228.13 117.368 226.715 115.971 226.715 114.255C226.715 112.54 228.13 111.144 229.868 111.144H298.81C300.548 111.144 301.961 112.54 301.961 114.256C301.961 115.971 300.548 117.368 298.81 117.368V117.368Z" fill="#7B6CF6"/>
<path d="M201.447 13.3434H161.926C161.824 13.3434 161.741 13.4255 161.741 13.5269V18.2093C161.741 18.3106 161.824 18.3928 161.926 18.3928H201.447C201.55 18.3928 201.633 18.3106 201.633 18.2093V13.5269C201.633 13.4255 201.55 13.3434 201.447 13.3434Z" fill="#E6E6E6"/>
<path d="M333.946 18.3927C336.206 18.3927 338.037 16.5842 338.037 14.3532C338.037 12.1223 336.206 10.3137 333.946 10.3137C331.686 10.3137 329.854 12.1223 329.854 14.3532C329.854 16.5842 331.686 18.3927 333.946 18.3927Z" fill="#E6E6E6"/>
<path d="M345.198 18.3927C347.457 18.3927 349.289 16.5842 349.289 14.3532C349.289 12.1223 347.457 10.3137 345.198 10.3137C342.938 10.3137 341.106 12.1223 341.106 14.3532C341.106 16.5842 342.938 18.3927 345.198 18.3927Z" fill="#E6E6E6"/>
<path d="M356.449 18.3927C358.709 18.3927 360.541 16.5842 360.541 14.3532C360.541 12.1223 358.709 10.3137 356.449 10.3137C354.19 10.3137 352.358 12.1223 352.358 14.3532C352.358 16.5842 354.19 18.3927 356.449 18.3927Z" fill="#E6E6E6"/>
<path d="M175.683 134.027C175.683 134.586 176.137 135.034 176.704 135.034H351.973C352.539 135.034 352.994 134.586 352.994 134.027C352.994 133.468 352.539 133.019 351.973 133.019H176.704C176.137 133.019 175.683 133.468 175.683 134.027Z" fill="#3F3D56"/>
<path d="M314.689 276.588C314.689 277.147 315.143 277.596 315.71 277.596H490.979C491.545 277.596 492 277.147 492 276.588C492 276.029 491.545 275.58 490.979 275.58H315.71C315.143 275.58 314.689 276.029 314.689 276.588Z" fill="#3F3D56"/>
<path d="M335.165 213.25H229.983C228.245 213.25 226.831 211.854 226.831 210.138C226.831 208.422 228.245 207.026 229.983 207.026H335.165C336.903 207.026 338.317 208.422 338.317 210.138C338.317 211.854 336.903 213.25 335.165 213.25Z" fill="#7B6CF6"/>
<path d="M198.081 217.377C202.345 217.377 205.802 213.963 205.802 209.753C205.802 205.543 202.345 202.13 198.081 202.13C193.817 202.13 190.359 205.543 190.359 209.753C190.359 213.963 193.817 217.377 198.081 217.377Z" fill="#7B6CF6"/>
<path d="M197.223 222.459V220.765C203.609 220.765 208.805 215.635 208.805 209.33C208.805 203.025 203.609 197.895 197.223 197.895V196.201C204.556 196.201 210.521 202.09 210.521 209.33C210.521 216.569 204.556 222.459 197.223 222.459Z" fill="#3F3D56"/>
<path d="M105.256 179.009C108.405 175.845 112.612 174.884 114.652 176.864C116.691 178.843 115.791 183.012 112.64 186.177C111.399 187.459 109.865 188.428 108.166 189.004L94.6494 202.246L88.4905 195.851L102.47 183.476C103.024 181.789 103.979 180.257 105.256 179.009H105.256Z" fill="#FFB6B6"/>
<path d="M62.0272 168.079L76.1993 199.119L98.8299 187.025L106.929 191.269C106.929 191.269 88.4289 221.804 75.7619 218.328C63.0949 214.852 40.6016 183.334 44.6544 173.606C48.7071 163.878 62.0272 168.079 62.0272 168.079Z" fill="#E6E6E6"/>
<path d="M0.533203 380.961C0.533203 381.351 0.850778 381.665 1.24624 381.665H438.21C438.606 381.665 438.923 381.351 438.923 380.961C438.923 380.571 438.606 380.257 438.21 380.257H1.24624C0.850778 380.257 0.533203 380.571 0.533203 380.961Z" fill="#3F3D56"/>
<path d="M131.344 229.21C152.82 229.21 170.229 212.384 170.229 191.629C170.229 170.873 152.82 154.047 131.344 154.047C109.868 154.047 92.459 170.873 92.459 191.629C92.459 212.384 109.868 229.21 131.344 229.21Z" fill="#7B6CF6"/>
<path d="M55.8129 374.948L66.1466 374.947L71.0624 335.595L55.8108 335.596L55.8129 374.948Z" fill="#FFB6B6"/>
<path d="M91.2175 374.717C91.5393 375.252 91.709 376.978 91.709 377.601C91.709 379.513 90.1388 381.063 88.2017 381.063H56.1993C54.8779 381.063 53.8066 380.006 53.8066 378.701V377.386C53.8066 377.386 52.2235 373.432 55.4829 368.559C55.4829 368.559 59.5339 372.375 65.587 366.399L67.3721 363.206L80.2933 372.536L87.4553 373.406C89.0222 373.596 90.4114 373.377 91.2174 374.717H91.2175Z" fill="#2F2E41"/>
<path d="M63.6324 170.071L63.8414 156.31L55.2464 151.021L45.9003 162.307L63.6324 170.071Z" fill="#FFB6B6"/>
<path opacity="0.1" d="M63.6324 170.071L64.1887 156.653L55.2463 151.021L58.2845 167.626L63.6324 170.071Z" fill="black"/>
<path d="M84.506 261.062L70.2666 356.728H52.4012L54.7768 302.12L56.0271 273.406L52.4012 259.739C52.4012 259.739 50.748 256.701 49.3553 253.018C47.7855 248.862 46.5457 243.88 48.3864 241.518C49.0636 240.647 50.8245 240.002 53.2174 239.522C54.6795 239.227 56.3813 238.997 58.2186 238.819C68.7836 237.787 83.8114 238.432 83.8114 238.432L84.1935 250.878L84.4053 257.829L84.5061 261.062L84.506 261.062Z" fill="#2F2E41"/>
<path d="M37.6096 370.27L47.8336 371.753L58.4949 333.525L43.4054 331.336L37.6096 370.27Z" fill="#FFB6B6"/>
<path d="M72.6719 375.125C72.9114 375.7 72.825 377.433 72.7333 378.049C72.4516 379.941 70.6696 381.249 68.7531 380.971L37.0911 376.375C35.7838 376.185 34.8797 374.985 35.0719 373.694L35.2657 372.393C35.2657 372.393 34.2819 368.254 38.2245 363.901C38.2245 363.901 41.6703 368.258 48.5396 363.215L50.776 360.312L62.1852 371.398L69.1428 373.288C70.665 373.701 72.0718 373.683 72.6718 375.125H72.6719L72.6719 375.125Z" fill="#2F2E41"/>
<path d="M84.7301 245.108L82.777 261.714L72.1259 296.707L54.5924 354.318L36.9191 351.754L52.7807 269.84L51.2102 255.794C51.2102 255.794 50.6987 254.397 50.1124 252.353C48.9486 248.31 47.489 241.724 49.0948 238.365C49.3117 237.909 49.5839 237.512 49.9206 237.192C50.5522 236.587 51.8359 236.22 53.5557 236.025C60.7444 235.223 75.5489 237.517 82.1365 238.643L84.7301 245.108V245.108Z" fill="#2F2E41"/>
<path d="M47.8655 159.396L65.2307 167.626C65.2307 167.626 83.6378 221.459 83.6378 224.202C83.6378 226.945 88.8474 228.659 85.7217 231.745C82.5959 234.831 91.5395 237.445 86.7204 239.91C81.9013 242.375 51.839 255.858 48.4962 254.642C39.2766 251.289 48.8869 238.966 48.8869 238.966C48.8869 238.966 41.9613 233.46 43.0032 230.717C44.0451 227.974 36.7517 175.512 36.7517 175.512L47.8655 159.396H47.8655Z" fill="#E6E6E6"/>
<path d="M100.779 206.832C105.089 205.575 109.239 206.751 110.049 209.459C110.859 212.167 108.022 215.381 103.71 216.637C101.995 217.163 100.177 217.275 98.4089 216.965L80.0805 222.063L77.8405 213.521L96.1469 209.401C97.4609 208.192 99.0492 207.311 100.779 206.832H100.779Z" fill="#FFB6B6"/>
<path d="M68.3607 176.557L65.488 210.486L91.2198 210.76L96.2138 218.352C96.2138 218.352 65.0253 236.181 55.6603 227.071C46.2953 217.96 42.1283 179.624 50.4546 173.062C58.7809 166.5 68.3607 176.557 68.3607 176.557Z" fill="#E6E6E6"/>
<path d="M63.2705 160.302C71.4861 160.302 78.1463 153.727 78.1463 145.616C78.1463 137.505 71.4861 130.929 63.2705 130.929C55.0548 130.929 48.3947 137.505 48.3947 145.616C48.3947 153.727 55.0548 160.302 63.2705 160.302Z" fill="#FFB6B6"/>
<path d="M55.2469 145.674C55.2469 145.674 57.5896 141.858 58.878 139.892C60.1665 137.926 60.1665 135.046 60.1665 135.046C60.1665 135.046 72.114 134.803 76.0965 138.157C80.079 141.511 82.8901 129.137 79.0248 124.858C79.0248 124.858 77.3849 126.708 77.7363 127.402L78.0877 128.096C78.0877 128.096 76.0965 120.232 70.357 118.729C70.357 118.729 67.1642 120.357 68.0578 121.278C68.9514 122.198 61.2207 115.722 58.878 119.539C58.878 119.539 53.1385 119.423 53.8413 121.504L53.4899 122.777C53.4899 122.777 48.5704 121.273 48.219 124.858C48.219 124.858 49.976 124.858 50.913 125.783C51.8501 126.708 47.5162 129.368 47.5162 129.368C47.5162 129.368 42.4795 143.014 49.2732 148.565C49.2732 148.565 49.3317 141.915 52.0258 143.534C54.7198 145.153 55.2469 145.674 55.2469 145.674Z" fill="#2F2E41"/>
<path d="M69.4035 154.347L68.8694 155.735L72.8753 155.85L73.1424 154.578L69.4035 154.347Z" fill="#2F2E41"/>
<path d="M73.4094 149.374C73.4094 149.374 67.4006 147.755 63.7952 152.612L62.994 153.537C62.994 153.537 55.3828 145.095 56.0504 141.973L54.4481 142.089L52.8457 150.184C52.8457 150.184 57.9199 158.857 64.997 159.204C64.997 159.204 71.8071 160.823 73.2759 158.047C74.7448 155.272 77.2736 151.18 77.2736 151.18L73.4095 149.374H73.4094ZM72.3165 157.122H68.3353C67.4006 157.122 64.997 153.769 64.997 153.769C66.3323 151.687 70.3382 151.571 70.3382 151.571H74.6885L75.0118 152.844L72.3165 157.122H72.3165Z" fill="#2F2E41"/>
<path d="M363.386 376.066L356.855 374.672L359.191 349.136L368.831 351.193L363.386 376.066Z" fill="#A0616A"/>
<path d="M341.04 371.146C340.763 371.441 340.416 372.509 340.33 372.902C340.066 374.111 340.844 375.303 342.068 375.564L362.296 379.879C363.131 380.057 363.955 379.533 364.135 378.708L364.317 377.877C364.317 377.877 365.865 375.591 364.478 372.072C364.478 372.072 361.39 373.937 358.391 369.344L357.704 367.085L348.247 371.24L343.599 370.825C342.583 370.734 341.735 370.408 341.04 371.146L341.04 371.146Z" fill="#2F2E41"/>
<path d="M351.703 374.112L346.254 370.293L358.579 347.725L366.622 353.361L351.703 374.112Z" fill="#A0616A"/>
<path d="M333.121 360.908C332.748 361.072 332.004 361.919 331.768 362.248C331.043 363.256 331.284 364.654 332.305 365.37L349.181 377.194C349.878 377.682 350.844 377.521 351.339 376.832L351.837 376.139C351.837 376.139 354.171 374.639 354.299 370.865C354.299 370.865 350.717 371.38 349.79 365.992L350.059 363.649L339.708 363.795L335.601 361.607C334.703 361.129 334.054 360.499 333.121 360.908L333.121 360.908V360.908Z" fill="#2F2E41"/>
<path d="M430.204 247.861C430.204 247.861 440.365 261.5 420.042 276.835L378.55 263.745L393.369 233.231L406.494 226.125L430.204 247.861Z" fill="#2F2E41"/>
<path d="M378.55 263.745L362.461 294.678L352.299 359.051L365.001 359.887L377.703 298.858L400.143 265.835L384.477 258.729" fill="#2F2E41"/>
<path d="M420.042 267.119V276.835L391.252 308.054C391.252 308.054 391.252 331.462 380.243 342.331L367.542 361.559L356.533 355.707L372.622 299.694L401.413 262.909L420.042 267.119Z" fill="#2F2E41"/>
<path d="M399.583 170.792L403.949 191.207L420.595 187.191C420.595 187.191 412.366 170.295 414.004 163.602L399.583 170.792Z" fill="#A0616A"/>
<path opacity="0.1" d="M399.583 170.792L403.949 191.207L420.595 187.191C420.595 187.191 412.366 170.295 414.004 163.602L399.583 170.792Z" fill="black"/>
<path d="M415.385 173.874L402.683 179.726C402.683 179.726 396.149 183.669 396.029 186.295C395.909 188.922 396.756 201.462 396.756 201.462C396.756 201.462 391.675 206.478 395.062 216.51L393.369 233.231L431.474 253.295L428.087 218.182L429.78 185.578L415.385 173.874Z" fill="#E6E6E6"/>
<path d="M426.786 269.013C425.299 272.382 422.333 274.355 420.162 273.421C417.99 272.486 417.436 268.998 418.924 265.628C419.5 264.274 420.396 263.075 421.537 262.133L428.021 247.938L434.703 251.084L427.602 264.744C427.679 266.211 427.4 267.675 426.786 269.013V269.013Z" fill="#A0616A"/>
<path d="M420.042 187.668C420.042 187.668 429.357 181.816 432.744 188.504C436.131 195.192 443.752 229.469 443.752 229.469L432.744 262.073L422.583 257.893L431.474 222.803L420.042 187.668Z" fill="#E6E6E6"/>
<path d="M372.303 263.751C369.663 266.342 366.169 267.097 364.5 265.438C362.83 263.78 363.616 260.335 366.257 257.744C367.298 256.694 368.578 255.906 369.99 255.445L381.315 244.607L386.353 249.962L374.654 260.078C374.179 261.47 373.372 262.729 372.303 263.751Z" fill="#A0616A"/>
<path d="M396.387 185.674C396.387 185.674 412.626 185.018 413.28 192.467C413.933 199.917 402.832 233.158 402.832 233.158L380.431 259.465L372.544 251.883L393.904 222.496L396.387 185.674Z" fill="#E6E6E6"/>
<path d="M443.276 273.959L339.436 257.424C337.72 257.151 336.549 255.55 336.826 253.856C337.103 252.162 338.724 251.006 340.44 251.28L444.28 267.815C445.996 268.088 447.167 269.688 446.89 271.382C446.613 273.076 444.992 274.233 443.276 273.959V273.959Z" fill="#7B6CF6"/>
<path d="M308.505 256.58C312.77 256.58 316.227 253.167 316.227 248.957C316.227 244.746 312.77 241.333 308.505 241.333C304.241 241.333 300.784 244.746 300.784 248.957C300.784 253.167 304.241 256.58 308.505 256.58Z" fill="#7B6CF6"/>
<path d="M305.609 261.365L305.882 259.693C312.187 260.697 318.144 256.45 319.161 250.224C320.178 244 315.875 238.119 309.571 237.115L309.844 235.442C317.083 236.595 322.022 243.347 320.855 250.494C319.687 257.641 312.848 262.518 305.609 261.365Z" fill="#3F3D56"/>
<path d="M401.248 175.131C408.311 175.131 414.037 169.478 414.037 162.505C414.037 155.532 408.311 149.879 401.248 149.879C394.185 149.879 388.46 155.532 388.46 162.505C388.46 169.478 394.185 175.131 401.248 175.131Z" fill="#A0616A"/>
<path d="M408.806 162.505C408.806 162.505 400.822 155.35 395.707 157.876C390.591 160.401 388.033 162.084 388.033 162.084C388.033 162.084 383.771 155.771 390.165 150.3C390.165 150.3 377.15 144.686 386.641 135.919C396.133 127.152 404.659 130.519 404.659 130.519C404.659 130.519 416.168 135.57 408.069 145.671C408.069 145.671 419.869 153.059 413.756 165.147C413.756 165.147 413.184 157.455 411.479 159.559C409.774 161.663 408.806 162.505 408.806 162.505V162.505Z" fill="#2F2E41"/>
<path d="M144.704 205.778C139.815 193.911 134.926 182.044 130.038 170.177C129.362 168.538 127.247 168.48 126.588 170.177C121.758 182.619 118.601 195.601 117.083 208.838C116.825 211.092 120.404 211.074 120.661 208.838C121.254 203.658 122.136 198.517 123.268 193.431C127.296 193.639 131.358 193.193 135.246 192.13C137.249 196.993 139.252 201.855 141.255 206.717C142.111 208.795 145.573 207.886 144.704 205.778H144.704ZM124.079 189.939C125.284 185.07 126.728 180.259 128.404 175.525L133.887 188.833C130.676 189.665 127.392 190.035 124.079 189.939Z" fill="white"/>
<path d="M151.599 208.746C153.584 208.746 155.194 207.157 155.194 205.197C155.194 203.237 153.584 201.648 151.599 201.648C149.613 201.648 148.004 203.237 148.004 205.197C148.004 207.157 149.613 208.746 151.599 208.746Z" fill="white"/>
<path d="M113.851 177.395C115.837 177.395 117.446 175.805 117.446 173.845C117.446 171.885 115.837 170.296 113.851 170.296C111.866 170.296 110.256 171.885 110.256 173.845C110.256 175.805 111.866 177.395 113.851 177.395Z" fill="white"/>
</g>
<defs>
<clipPath id="clip0_61_845">
<rect width="491.467" height="382" fill="white" transform="translate(0.533203)"/>
</clipPath>
</defs>
</svg>
