<svg width="52" height="52" viewBox="0 0 52 52" fill="none" xmlns="http://www.w3.org/2000/svg">
<path d="M43.875 3.25H8.125C5.43359 3.25 3.25 5.43359 3.25 8.125V43.875C3.25 46.5664 5.43359 48.75 8.125 48.75H43.875C46.5664 48.75 48.75 46.5664 48.75 43.875V8.125C48.75 5.43359 46.5664 3.25 43.875 3.25ZM28.0109 38.7359C28.0109 43.1641 25.4109 45.1852 21.6227 45.1852C18.2 45.1852 16.2195 43.418 15.2039 41.275L18.6875 39.1727C19.3578 40.3609 19.9672 41.3664 21.4398 41.3664C22.8414 41.3664 23.7352 40.818 23.7352 38.675V24.1414H28.0109V38.7359V38.7359ZM38.1266 45.1852C34.1555 45.1852 31.5859 43.2961 30.3367 40.818L33.8203 38.807C34.7344 40.3 35.9328 41.407 38.0352 41.407C39.8023 41.407 40.9398 40.5234 40.9398 39.2945C40.9398 37.832 39.782 37.3141 37.8219 36.4508L36.7555 35.9937C33.668 34.6836 31.6266 33.0281 31.6266 29.5445C31.6266 26.3352 34.0742 23.8977 37.8828 23.8977C40.6047 23.8977 42.5547 24.8422 43.9562 27.3203L40.625 29.4531C39.8938 28.143 39.1016 27.625 37.8727 27.625C36.6234 27.625 35.8312 28.4172 35.8312 29.4531C35.8312 30.7328 36.6234 31.2508 38.4617 32.0531L39.5281 32.5102C43.1641 34.0641 45.2055 35.6586 45.2055 39.2336C45.2055 43.0727 42.1789 45.1852 38.1266 45.1852V45.1852Z" fill="#FACC15"/>
</svg>
