<svg width="52" height="52" viewBox="0 0 52 52" fill="none" xmlns="http://www.w3.org/2000/svg">
<path d="M42.4734 17.9969C41.925 17.8141 41.3766 17.6414 40.8281 17.4789C40.9195 17.1031 41.0008 16.7274 41.082 16.3516C42.3313 10.2984 41.5086 5.43361 38.7359 3.82892C36.0648 2.29532 31.7078 3.88986 27.3 7.72892C26.8633 8.1047 26.4367 8.50079 26.0305 8.89689C25.7562 8.63282 25.4719 8.36876 25.1875 8.11486C20.5664 4.01173 15.9352 2.28517 13.1625 3.90001C10.5016 5.44376 9.70937 10.0242 10.8266 15.7524C10.9383 16.3211 11.0602 16.8797 11.2023 17.4484C10.5523 17.6313 9.9125 17.8344 9.31328 18.0477C3.88984 19.9266 0 22.8922 0 25.9594C0 29.1281 4.14375 32.307 9.78047 34.2367C10.2375 34.3891 10.6945 34.5414 11.1617 34.6734C11.0094 35.2828 10.8773 35.882 10.7555 36.5016C9.68906 42.1383 10.5219 46.607 13.1828 48.1406C15.925 49.725 20.5359 48.1 25.025 44.1695C25.3805 43.8547 25.7359 43.5297 26.0914 43.1844C26.5383 43.6211 27.0055 44.0375 27.4727 44.4438C31.8195 48.1813 36.1156 49.6945 38.7664 48.1609C41.5086 46.5766 42.4023 41.7727 41.2445 35.9227C41.1531 35.4758 41.0516 35.0188 40.9398 34.5516C41.2648 34.4602 41.5797 34.3586 41.8945 34.257C47.7547 32.3172 52 29.1789 52 25.9594C52 22.882 47.9984 19.8961 42.4734 17.9969V17.9969ZM28.732 9.37423C32.5102 6.08361 36.0344 4.79376 37.6391 5.71798C39.3555 6.70314 40.0156 10.6844 38.9391 15.9149C38.868 16.2602 38.7969 16.5953 38.7055 16.9305C36.4508 16.4227 34.1656 16.057 31.8703 15.8539C30.55 13.9649 29.1078 12.157 27.5438 10.4609C27.9398 10.0852 28.3258 9.7297 28.732 9.37423V9.37423ZM16.9812 31.2305C17.4992 32.1141 18.0273 32.9977 18.5859 33.8609C17.0016 33.6883 15.4273 33.4344 13.8734 33.0992C14.3203 31.6367 14.8789 30.1234 15.5289 28.5797C15.9961 29.4734 16.4734 30.357 16.9812 31.2305V31.2305ZM13.9039 19.0125C15.3664 18.6875 16.9203 18.4234 18.5352 18.2203C17.9969 19.0633 17.4688 19.9266 16.9711 20.8C16.4734 21.6633 15.9859 22.5469 15.5289 23.4406C14.8891 21.9274 14.3508 20.4445 13.9039 19.0125ZM16.6867 26.0102C17.357 24.6086 18.0883 23.2375 18.8602 21.8867C19.632 20.5359 20.4648 19.2258 21.3383 17.9359C22.8617 17.8242 24.4156 17.7633 26 17.7633C27.5844 17.7633 29.1484 17.8242 30.6617 17.9359C31.525 19.2156 32.3477 20.5258 33.1297 21.8664C33.9117 23.207 34.643 24.5781 35.3336 25.9695C34.6531 27.3711 33.9219 28.7524 33.1398 30.1133C32.368 31.4641 31.5453 32.7742 30.682 34.0742C29.1688 34.1859 27.5945 34.2367 26 34.2367C24.4055 34.2367 22.8617 34.1859 21.3687 34.0945C20.4852 32.8047 19.6523 31.4844 18.8703 30.1336C18.0883 28.7828 17.3672 27.4117 16.6867 26.0102ZM35.0289 31.2102C35.5469 30.3164 36.0344 29.4125 36.5117 28.4984C37.1617 29.9711 37.7305 31.4641 38.2281 32.9977C36.6539 33.3531 35.0594 33.6274 33.4547 33.8102C34.0031 32.957 34.5211 32.0836 35.0289 31.2102ZM36.4914 23.4406C36.0141 22.5469 35.5266 21.6531 35.0187 20.7797C34.5211 19.9164 34.0031 19.0633 33.4648 18.2203C35.1 18.4234 36.6641 18.6977 38.1266 19.0328C37.6594 20.5359 37.1109 21.9984 36.4914 23.4406V23.4406ZM26.0203 12.0149C27.0867 13.1727 28.0922 14.3914 29.0266 15.6508C27.0156 15.5594 24.9945 15.5594 22.9836 15.6508C23.9789 14.3406 25.0047 13.1219 26.0203 12.0149ZM14.2391 5.78907C15.9453 4.79376 19.7336 6.21564 23.725 9.75001C23.9789 9.97345 24.2328 10.2172 24.4969 10.4609C22.9227 12.157 21.4703 13.9649 20.1398 15.8539C17.8445 16.057 15.5695 16.4125 13.3148 16.9102C13.1828 16.3922 13.0711 15.8641 12.9594 15.3359C12.0047 10.4203 12.6344 6.71329 14.2391 5.78907V5.78907ZM11.7508 32.5609C11.3242 32.4391 10.9078 32.307 10.4914 32.1649C8.32813 31.4844 5.87031 30.4078 4.09297 28.9961C3.06719 28.2852 2.37656 27.1883 2.18359 25.9594C2.18359 24.1008 5.39297 21.7242 10.0242 20.1094C10.6031 19.9063 11.1922 19.7234 11.7812 19.5508C12.4719 21.7547 13.3047 23.918 14.2695 26.0102C13.2945 28.1328 12.4516 30.3266 11.7508 32.5609V32.5609ZM23.593 42.5141C21.9172 44.0477 19.9773 45.2664 17.8648 46.0992C16.7375 46.6375 15.4375 46.6883 14.2797 46.2313C12.6648 45.2969 11.9945 41.7117 12.9086 36.8875C13.0203 36.3188 13.1422 35.75 13.2844 35.1914C15.5594 35.6789 17.8547 36.0141 20.1805 36.1867C21.5211 38.0859 22.9937 39.9039 24.568 41.6102C24.243 41.925 23.918 42.2297 23.593 42.5141ZM26.0812 40.0461C25.0453 38.9289 24.0094 37.6899 23.0039 36.3594C23.9789 36.4 24.9844 36.4203 26 36.4203C27.0461 36.4203 28.0719 36.4 29.0875 36.3492C28.1531 37.6391 27.1477 38.868 26.0812 40.0461V40.0461ZM39.3555 43.093C39.2641 44.332 38.6547 45.4899 37.6797 46.2719C36.0648 47.2063 32.6219 45.9875 28.9047 42.7984C28.4781 42.4328 28.0516 42.0367 27.6148 41.6305C29.1687 39.9141 30.6008 38.0961 31.9008 36.1867C34.2266 35.9938 36.5422 35.6383 38.8273 35.1203C38.9289 35.5367 39.0203 35.9531 39.1016 36.3594C39.5992 38.5531 39.6805 40.8383 39.3555 43.093V43.093ZM41.2039 32.175C40.9195 32.2664 40.6352 32.3578 40.3406 32.4391C39.6297 30.225 38.7563 28.0617 37.7508 25.9594C38.7258 23.8875 39.5484 21.7547 40.2391 19.5711C40.7672 19.7234 41.275 19.8859 41.7625 20.0484C46.4953 21.6734 49.8164 24.0906 49.8164 25.9391C49.8164 27.9297 46.2719 30.4992 41.2039 32.175ZM26 30.6516C28.5695 30.6516 30.6516 28.5695 30.6516 26C30.6516 23.4305 28.5695 21.3484 26 21.3484C23.4305 21.3484 21.3484 23.4305 21.3484 26C21.3484 28.5695 23.4305 30.6516 26 30.6516Z" fill="#22D3EE"/>
</svg>
