<svg width="52" height="52" viewBox="0 0 52 52" fill="none" xmlns="http://www.w3.org/2000/svg">
<path d="M24.5243 35.9873C24.5 36.036 24.4756 36.075 24.5243 35.9873V35.9873ZM44.7661 28.9185C43.132 28.918 41.5196 29.2933 40.0536 30.0154C39.5743 29.0485 39.0786 28.2035 38.9974 27.5698C38.8999 26.8304 38.7943 26.3916 38.908 25.5141C39.0218 24.6366 39.5336 23.3935 39.5255 23.3041C39.5174 23.2148 39.4118 22.7679 38.3636 22.7598C37.3155 22.7516 36.4136 22.9629 36.3088 23.2391C36.1237 23.744 35.9797 24.263 35.8782 24.791C35.6913 25.7416 33.7828 29.1379 32.7021 30.9091C32.3446 30.2185 32.044 29.6091 31.979 29.1216C31.8815 28.3823 31.7759 27.9435 31.8896 27.066C32.0034 26.1885 32.5153 24.9454 32.5071 24.856C32.499 24.7666 32.3934 24.3198 31.3461 24.3116C30.2988 24.3035 29.3961 24.5148 29.2905 24.791C29.1848 25.0673 29.0711 25.7173 28.8598 26.3429C28.6486 26.9685 26.1063 32.6235 25.4408 34.0941C25.0996 34.8416 24.8071 35.4429 24.5958 35.8491C24.5633 35.9141 24.539 35.9548 24.5227 35.9873C24.5471 35.9466 24.5633 35.906 24.5633 35.9223C24.3846 36.2716 24.279 36.4666 24.279 36.4666V36.4748C24.1408 36.7348 23.9865 36.9704 23.9133 36.9704C23.8646 36.9704 23.759 36.2879 23.9377 35.3535C24.3196 33.3873 25.2215 30.3323 25.2133 30.2266C25.2052 30.1698 25.384 29.6416 24.6202 29.3573C23.8808 29.0891 23.6127 29.536 23.5477 29.536C23.4827 29.536 23.434 29.6985 23.434 29.6985C23.434 29.6985 24.2546 26.2535 21.8585 26.2535C20.3635 26.2535 18.2835 27.8948 17.2614 29.3816C16.6195 29.731 15.2301 30.4866 13.7676 31.291C13.207 31.5998 12.6301 31.9166 12.0858 32.2173C12.0451 32.1766 12.0126 32.136 11.972 32.0954C9.06408 28.9916 3.69508 26.7979 3.92258 22.6298C4.00383 21.1104 4.53196 17.121 14.247 12.2785C22.2095 8.31352 28.5755 9.40227 29.6715 11.8235C31.2478 15.2766 26.268 21.7035 17.9991 22.6298C14.8475 22.9791 13.1908 21.7604 12.7764 21.3054C12.3458 20.826 12.2808 20.8016 12.1183 20.891C11.8501 21.0373 12.0208 21.4598 12.1183 21.7116C12.362 22.3535 13.3776 23.491 15.1075 24.0598C16.6268 24.5554 20.3221 24.8316 24.79 23.101C29.8096 21.1673 33.717 15.7804 32.5713 11.271C31.4046 6.68852 23.8061 5.1854 16.6211 7.73665C12.3401 9.25602 7.71046 11.6448 4.38002 14.7566C0.423958 18.4616 -0.20898 21.6873 0.0510201 23.036C0.976458 27.8216 7.57233 30.9416 10.2121 33.2491C10.0821 33.3223 9.96027 33.3873 9.84652 33.4523C8.52296 34.1104 3.4944 36.7429 2.23583 39.5216C0.813958 42.6741 2.47146 44.9329 3.5594 45.2416C6.95483 46.1841 10.4315 44.486 12.2995 41.6991C14.1674 38.9123 13.9407 35.2723 13.0795 33.6148C13.0713 33.5904 13.0551 33.5741 13.047 33.5498C13.3882 33.3466 13.7376 33.1435 14.087 32.9404C14.7605 32.5423 15.4186 32.1766 15.9955 31.8598C15.6705 32.7373 15.4349 33.7935 15.313 35.321C15.1668 37.1085 15.9061 39.4241 16.8649 40.3341C17.2874 40.7323 17.7985 40.7404 18.1153 40.7404C19.2366 40.7404 19.7403 39.8141 20.3001 38.7091C20.9908 37.3604 21.6001 35.7923 21.6001 35.7923C21.6001 35.7923 20.8364 40.0335 22.9245 40.0335C23.6875 40.0335 24.4512 39.0504 24.7933 38.5466V38.5548C24.7933 38.5548 24.8095 38.5223 24.8501 38.4573C24.9314 38.3354 24.972 38.2623 24.972 38.2623V38.2379C25.2808 37.7098 25.9551 36.4991 26.97 34.5004C28.2862 31.9166 29.5448 28.691 29.5448 28.691C29.6664 29.4001 29.8347 30.1004 30.0485 30.7873C30.276 31.5591 30.7554 32.4041 31.1373 33.2248C30.8285 33.6473 30.6416 33.891 30.6416 33.891C30.6422 33.8973 30.6451 33.9031 30.6498 33.9073C30.406 34.2323 30.1298 34.5816 29.8454 34.9229C28.8062 36.1579 27.5704 37.5716 27.4079 37.9779C27.2129 38.4573 27.2616 38.8148 27.6354 39.091C27.9116 39.3023 28.3991 39.3348 28.9102 39.2941C29.8446 39.2291 30.5027 39.0016 30.8196 38.8554C31.4038 38.6459 31.9559 38.356 32.46 37.9941C33.4756 37.2466 34.0931 36.1741 34.0363 34.7604C34.0038 33.9804 33.7519 33.2004 33.4431 32.4691C33.5325 32.3391 33.63 32.201 33.7194 32.0629C35.3273 29.7148 36.5705 27.1375 36.5705 27.1375C36.6921 27.8466 36.8604 28.5469 37.0742 29.2338C37.2692 29.8919 37.6503 30.615 37.9996 31.3219C36.4892 32.5488 35.5548 33.9706 35.2298 34.905C34.6286 36.6356 35.0998 37.4156 35.9855 37.5944C36.3836 37.6756 36.9523 37.4888 37.3748 37.31C38.0023 37.101 38.5939 36.7968 39.129 36.4081C40.1446 35.6606 41.127 34.6125 41.062 33.1906C41.0376 32.5488 40.8588 31.9069 40.6232 31.2894C41.8988 30.7531 43.5555 30.4606 45.668 30.7044C50.192 31.2325 51.0776 34.06 50.907 35.2381C50.7364 36.4163 49.7858 37.0744 49.4689 37.2694C49.152 37.4644 49.0545 37.5375 49.0789 37.6838C49.1195 37.895 49.2658 37.8869 49.5339 37.8381C49.9077 37.7731 51.9056 36.8794 51.995 34.6938C52.125 31.9313 49.4689 28.8925 44.7637 28.9169L44.7661 28.9185ZM9.89527 40.6754C8.40108 42.3085 6.30483 42.926 5.40377 42.406C4.4369 41.8438 4.81877 39.4404 6.66233 37.7C7.78358 36.6438 9.22902 35.6688 10.1878 35.0675C10.4071 34.9375 10.724 34.7425 11.114 34.5069C11.179 34.4663 11.2115 34.45 11.2115 34.45C11.2846 34.4013 11.3659 34.3606 11.4471 34.3119C12.1207 36.7819 11.4715 38.9594 9.89527 40.6738V40.6754ZM20.812 33.2491C20.292 34.5248 19.196 37.7748 18.5297 37.6041C17.961 37.4579 17.6116 34.9798 18.416 32.5423C18.8222 31.3154 19.6835 29.8529 20.1953 29.2841C21.0151 28.366 21.917 28.0735 22.1283 28.4391C22.4126 28.9185 21.137 32.4529 20.812 33.2491ZM29.8308 37.5554C29.6114 37.6691 29.4083 37.7423 29.3108 37.6854C29.2376 37.6448 29.4001 37.4904 29.4001 37.4904C29.4001 37.4904 30.5295 36.2798 30.9764 35.7273C31.2364 35.4023 31.537 35.0204 31.8612 34.5979C31.8612 34.6385 31.8693 34.6791 31.8693 34.7279C31.8588 36.1823 30.4621 37.1654 29.8283 37.5554H29.8308ZM36.7841 35.971C36.6216 35.8573 36.646 35.4754 37.1904 34.2891C37.4016 33.826 37.8883 33.046 38.7341 32.2985C38.8299 32.5815 38.8819 32.8774 38.8885 33.176C38.8804 35.0041 37.5723 35.6866 36.785 35.971H36.7841Z" fill="#F472B6"/>
</svg>
